<svg width="208" height="39" viewBox="0 0 208 39" fill="none" xmlns="http://www.w3.org/2000/svg">
<path d="M23.5797 23.7489H9.48222V38.1951H0.739792V1.93019H24.9994V8.68004H9.48222V17.0239H23.5797V23.7489ZM37.1043 38.1951H28.6857V11.2455H37.1043V38.1951ZM28.1875 4.29637C28.1875 3.10082 28.6193 2.12114 29.4827 1.35732C30.3461 0.593499 31.467 0.211589 32.8452 0.211589C34.2234 0.211589 35.3442 0.593499 36.2076 1.35732C37.0711 2.12114 37.5028 3.10082 37.5028 4.29637C37.5028 5.49192 37.0711 6.4716 36.2076 7.23542C35.3442 7.99924 34.2234 8.38115 32.8452 8.38115C31.467 8.38115 30.3461 7.99924 29.4827 7.23542C28.6193 6.4716 28.1875 5.49192 28.1875 4.29637ZM55.3364 38.6932C51.2018 38.6932 47.8559 37.4645 45.2988 35.0069C42.7416 32.5328 41.4631 29.3198 41.4631 25.3679V24.6705C41.4631 21.9141 41.9695 19.4815 42.9824 17.3726C44.0119 15.2638 45.5063 13.6366 47.4657 12.4908C49.4251 11.3285 51.7497 10.7473 54.4397 10.7473C58.2256 10.7473 61.2145 11.9263 63.4063 14.2842C65.5981 16.6254 66.6941 19.8966 66.6941 24.0976V27.3604H50.0062C50.3051 28.8715 50.961 30.0587 51.9739 30.9222C52.9868 31.7856 54.2986 32.2173 55.9092 32.2173C58.566 32.2173 60.6416 31.2875 62.136 29.4277L65.9717 33.9608C64.9256 35.4055 63.4395 36.5595 61.5134 37.4229C59.6038 38.2698 57.5448 38.6932 55.3364 38.6932ZM54.3899 17.2232C51.9324 17.2232 50.4712 18.8505 50.0062 22.105H58.4747V21.4574C58.5079 20.1124 58.1675 19.0746 57.4535 18.344C56.7395 17.5968 55.7183 17.2232 54.3899 17.2232ZM86.3957 18.8422L83.631 18.6429C80.9908 18.6429 79.2971 19.4732 78.5499 21.1336V38.1951H70.1562V11.2455H78.0268L78.3008 14.7076C79.7122 12.0674 81.6799 10.7473 84.2038 10.7473C85.1005 10.7473 85.8809 10.847 86.5451 11.0462L86.3957 18.8422ZM100.319 32.2173C101.498 32.2173 102.411 31.9018 103.059 31.2709C103.706 30.6233 104.022 29.7266 104.005 28.5809H111.876C111.876 31.5365 110.813 33.9608 108.688 35.8538C106.579 37.7467 103.856 38.6932 100.518 38.6932C96.5993 38.6932 93.5108 37.4645 91.2526 35.0069C88.9943 32.5494 87.8652 29.1455 87.8652 24.795V24.4463C87.8652 21.7231 88.3633 19.3237 89.3596 17.2481C90.3725 15.1559 91.8254 13.5535 93.7184 12.441C95.6113 11.3119 97.853 10.7473 100.443 10.7473C103.947 10.7473 106.728 11.7187 108.787 13.6615C110.846 15.6042 111.876 18.2361 111.876 21.5571H104.005C104.005 20.1623 103.665 19.0912 102.984 18.344C102.303 17.5968 101.39 17.2232 100.244 17.2232C98.0688 17.2232 96.7986 18.6097 96.4333 21.3827C96.317 22.2628 96.2589 23.4749 96.2589 25.0192C96.2589 27.7257 96.5827 29.6021 97.2303 30.6482C97.8779 31.6943 98.9074 32.2173 100.319 32.2173ZM128.464 38.6932C124.329 38.6932 120.983 37.4645 118.426 35.0069C115.869 32.5328 114.591 29.3198 114.591 25.3679V24.6705C114.591 21.9141 115.097 19.4815 116.11 17.3726C117.139 15.2638 118.634 13.6366 120.593 12.4908C122.553 11.3285 124.877 10.7473 127.567 10.7473C131.353 10.7473 134.342 11.9263 136.534 14.2842C138.726 16.6254 139.822 19.8966 139.822 24.0976V27.3604H123.134C123.433 28.8715 124.089 30.0587 125.101 30.9222C126.114 31.7856 127.426 32.2173 129.037 32.2173C131.694 32.2173 133.769 31.2875 135.264 29.4277L139.099 33.9608C138.053 35.4055 136.567 36.5595 134.641 37.4229C132.731 38.2698 130.672 38.6932 128.464 38.6932ZM127.517 17.2232C125.06 17.2232 123.599 18.8505 123.134 22.105H131.602V21.4574C131.635 20.1124 131.295 19.0746 130.581 18.344C129.867 17.5968 128.846 17.2232 127.517 17.2232ZM172.948 38.1951H168.141V21.4325H149.859V38.1951H145.077V1.93019H149.859V17.5221H168.141V1.93019H172.948V38.1951ZM194.742 23.5247H186.224V38.1951H181.417V1.93019H193.422C197.507 1.93019 200.645 2.86005 202.837 4.71979C205.045 6.57953 206.149 9.28611 206.149 12.8395C206.149 15.0978 205.535 17.0655 204.306 18.7425C203.094 20.4196 201.4 21.6733 199.225 22.5035L207.744 37.8962V38.1951H202.613L194.742 23.5247ZM186.224 19.6143H193.571C195.946 19.6143 197.83 18.9999 199.225 17.7712C200.637 16.5424 201.342 14.8985 201.342 12.8395C201.342 10.5979 200.67 8.87929 199.325 7.68375C197.997 6.4882 196.07 5.88213 193.546 5.86552H186.224V19.6143Z" fill="#AF010B"/>
</svg>
